# xmcd CD database file
#
# Track frame offsets:
#	150
#	20819
#	38772
#	69515
#	95051
#	122169
#	152401
#	178693
#	210359
#	238786
#
# Disc length: 3572 seconds
#
# Revision: 0
# Processed by: cddbd v1.5.1PL0 Copyright (c) Steve Scherf et al.
# Submitted via: CDex 1.51
#
DISCID=830df20a
DTITLE=Anders Persson Trio - In Person
DYEAR=2003
DGENRE=Jazz
TTITLE0=In Person
TTITLE1=Love Is A Many Splendored Thing
TTITLE2=Everything I Love
TTITLE3=Nuages
TTITLE4=Summer Knows
TTITLE5=Globetrotters
TTITLE6=What Kind Of Fool Am I
TTITLE7=So Long. Frank Lloyd Wright
TTITLE8=Fregatten
TTITLE9=Milonga
EXTD=YEAR: 2003
EXTT0=
EXTT1=
EXTT2=
EXTT3=
EXTT4=
EXTT5=
EXTT6=
EXTT7=
EXTT8=
EXTT9=
PLAYORDER=
